<mxfile host="Electron" modified="2024-10-11T12:13:30.146Z" agent="Mozilla/5.0 (Macintosh; Intel Mac OS X 10_15_7) AppleWebKit/537.36 (KHTML, like Gecko) draw.io/24.4.8 Chrome/124.0.6367.207 Electron/30.0.6 Safari/537.36" etag="vKZRkOXj1xbZQQ3H_oQr" version="24.4.8" type="device">
  <diagram name="Page-1" id="ynqzmu39-9TA3zofs5Mr">
    <mxGraphModel dx="1296" dy="392" grid="0" gridSize="10" guides="1" tooltips="1" connect="1" arrows="1" fold="1" page="0" pageScale="1" pageWidth="850" pageHeight="1100" math="0" shadow="0">
      <root>
        <mxCell id="0" />
        <mxCell id="1" parent="0" />
        <mxCell id="s3TjIayYwpr6v7bLue1O-23" value="用户" style="rounded=0;whiteSpace=wrap;html=1;" parent="1" vertex="1">
          <mxGeometry x="220" y="520" width="90" height="50" as="geometry" />
        </mxCell>
        <mxCell id="s3TjIayYwpr6v7bLue1O-24" value="用户名" style="ellipse;whiteSpace=wrap;html=1;" parent="1" vertex="1">
          <mxGeometry x="100" y="510" width="70" height="40" as="geometry" />
        </mxCell>
        <mxCell id="s3TjIayYwpr6v7bLue1O-25" value="头像" style="ellipse;whiteSpace=wrap;html=1;" parent="1" vertex="1">
          <mxGeometry x="160" y="440" width="70" height="40" as="geometry" />
        </mxCell>
        <mxCell id="s3TjIayYwpr6v7bLue1O-28" value="" style="endArrow=none;html=1;rounded=0;entryX=1;entryY=1;entryDx=0;entryDy=0;exitX=0.5;exitY=0;exitDx=0;exitDy=0;" parent="1" source="s3TjIayYwpr6v7bLue1O-23" target="s3TjIayYwpr6v7bLue1O-25" edge="1">
          <mxGeometry width="50" height="50" relative="1" as="geometry">
            <mxPoint x="490" y="670" as="sourcePoint" />
            <mxPoint x="540" y="620" as="targetPoint" />
          </mxGeometry>
        </mxCell>
        <mxCell id="s3TjIayYwpr6v7bLue1O-30" value="" style="endArrow=none;html=1;rounded=0;exitX=1;exitY=0.5;exitDx=0;exitDy=0;entryX=0;entryY=0.5;entryDx=0;entryDy=0;" parent="1" source="s3TjIayYwpr6v7bLue1O-24" target="s3TjIayYwpr6v7bLue1O-23" edge="1">
          <mxGeometry width="50" height="50" relative="1" as="geometry">
            <mxPoint x="490" y="670" as="sourcePoint" />
            <mxPoint x="540" y="620" as="targetPoint" />
          </mxGeometry>
        </mxCell>
        <mxCell id="s3TjIayYwpr6v7bLue1O-32" value="创建" style="rhombus;whiteSpace=wrap;html=1;" parent="1" vertex="1">
          <mxGeometry x="400" y="520" width="110" height="50" as="geometry" />
        </mxCell>
        <mxCell id="s3TjIayYwpr6v7bLue1O-33" value="帖子" style="whiteSpace=wrap;html=1;" parent="1" vertex="1">
          <mxGeometry x="590" y="518.5" width="90" height="52.5" as="geometry" />
        </mxCell>
        <mxCell id="s3TjIayYwpr6v7bLue1O-35" value="" style="endArrow=none;html=1;rounded=0;exitX=1;exitY=0.5;exitDx=0;exitDy=0;entryX=0;entryY=0.5;entryDx=0;entryDy=0;" parent="1" source="s3TjIayYwpr6v7bLue1O-32" target="s3TjIayYwpr6v7bLue1O-33" edge="1">
          <mxGeometry width="50" height="50" relative="1" as="geometry">
            <mxPoint x="490" y="670" as="sourcePoint" />
            <mxPoint x="540" y="620" as="targetPoint" />
          </mxGeometry>
        </mxCell>
        <mxCell id="s3TjIayYwpr6v7bLue1O-36" value="" style="endArrow=none;html=1;rounded=0;entryX=0;entryY=0.5;entryDx=0;entryDy=0;exitX=1;exitY=0.5;exitDx=0;exitDy=0;" parent="1" source="s3TjIayYwpr6v7bLue1O-23" edge="1">
          <mxGeometry width="50" height="50" relative="1" as="geometry">
            <mxPoint x="320" y="550" as="sourcePoint" />
            <mxPoint x="400" y="544.47" as="targetPoint" />
          </mxGeometry>
        </mxCell>
        <mxCell id="s3TjIayYwpr6v7bLue1O-37" value="1" style="text;html=1;align=center;verticalAlign=middle;resizable=0;points=[];autosize=1;strokeColor=none;fillColor=none;" parent="1" vertex="1">
          <mxGeometry x="345" y="518" width="30" height="30" as="geometry" />
        </mxCell>
        <mxCell id="s3TjIayYwpr6v7bLue1O-38" value="N" style="text;html=1;align=center;verticalAlign=middle;resizable=0;points=[];autosize=1;strokeColor=none;fillColor=none;" parent="1" vertex="1">
          <mxGeometry x="535" y="518" width="30" height="30" as="geometry" />
        </mxCell>
        <mxCell id="s3TjIayYwpr6v7bLue1O-39" value="时间" style="ellipse;whiteSpace=wrap;html=1;" parent="1" vertex="1">
          <mxGeometry x="680" y="420" width="70" height="40" as="geometry" />
        </mxCell>
        <mxCell id="s3TjIayYwpr6v7bLue1O-40" value="内容" style="ellipse;whiteSpace=wrap;html=1;" parent="1" vertex="1">
          <mxGeometry x="730" y="524.75" width="70" height="40" as="geometry" />
        </mxCell>
        <mxCell id="s3TjIayYwpr6v7bLue1O-41" value="" style="endArrow=none;html=1;rounded=0;entryX=0;entryY=1;entryDx=0;entryDy=0;exitX=0.5;exitY=0;exitDx=0;exitDy=0;" parent="1" source="s3TjIayYwpr6v7bLue1O-33" target="s3TjIayYwpr6v7bLue1O-39" edge="1">
          <mxGeometry width="50" height="50" relative="1" as="geometry">
            <mxPoint x="490" y="670" as="sourcePoint" />
            <mxPoint x="540" y="620" as="targetPoint" />
          </mxGeometry>
        </mxCell>
        <mxCell id="s3TjIayYwpr6v7bLue1O-42" value="" style="endArrow=none;html=1;rounded=0;entryX=0;entryY=0.5;entryDx=0;entryDy=0;exitX=1;exitY=0.5;exitDx=0;exitDy=0;" parent="1" source="s3TjIayYwpr6v7bLue1O-33" target="s3TjIayYwpr6v7bLue1O-40" edge="1">
          <mxGeometry width="50" height="50" relative="1" as="geometry">
            <mxPoint x="490" y="670" as="sourcePoint" />
            <mxPoint x="540" y="620" as="targetPoint" />
          </mxGeometry>
        </mxCell>
        <mxCell id="s3TjIayYwpr6v7bLue1O-44" value="描述" style="rhombus;whiteSpace=wrap;html=1;" parent="1" vertex="1">
          <mxGeometry x="574" y="680" width="120" height="60" as="geometry" />
        </mxCell>
        <mxCell id="s3TjIayYwpr6v7bLue1O-45" value="" style="endArrow=none;html=1;rounded=0;entryX=0.5;entryY=1;entryDx=0;entryDy=0;exitX=0.5;exitY=0;exitDx=0;exitDy=0;" parent="1" source="s3TjIayYwpr6v7bLue1O-44" target="s3TjIayYwpr6v7bLue1O-33" edge="1">
          <mxGeometry width="50" height="50" relative="1" as="geometry">
            <mxPoint x="490" y="670" as="sourcePoint" />
            <mxPoint x="540" y="620" as="targetPoint" />
          </mxGeometry>
        </mxCell>
        <mxCell id="s3TjIayYwpr6v7bLue1O-46" value="景点" style="whiteSpace=wrap;html=1;" parent="1" vertex="1">
          <mxGeometry x="589" y="840" width="90" height="52.5" as="geometry" />
        </mxCell>
        <mxCell id="s3TjIayYwpr6v7bLue1O-47" value="" style="endArrow=none;html=1;rounded=0;entryX=0.5;entryY=0;entryDx=0;entryDy=0;exitX=0.5;exitY=1;exitDx=0;exitDy=0;" parent="1" source="s3TjIayYwpr6v7bLue1O-44" target="s3TjIayYwpr6v7bLue1O-46" edge="1">
          <mxGeometry width="50" height="50" relative="1" as="geometry">
            <mxPoint x="490" y="670" as="sourcePoint" />
            <mxPoint x="540" y="620" as="targetPoint" />
          </mxGeometry>
        </mxCell>
        <mxCell id="s3TjIayYwpr6v7bLue1O-48" value="N" style="text;html=1;align=center;verticalAlign=middle;resizable=0;points=[];autosize=1;strokeColor=none;fillColor=none;" parent="1" vertex="1">
          <mxGeometry x="645" y="608" width="30" height="30" as="geometry" />
        </mxCell>
        <mxCell id="s3TjIayYwpr6v7bLue1O-49" value="N" style="text;html=1;align=center;verticalAlign=middle;resizable=0;points=[];autosize=1;strokeColor=none;fillColor=none;" parent="1" vertex="1">
          <mxGeometry x="645" y="768" width="30" height="30" as="geometry" />
        </mxCell>
        <mxCell id="s3TjIayYwpr6v7bLue1O-50" value="名称" style="ellipse;whiteSpace=wrap;html=1;" parent="1" vertex="1">
          <mxGeometry x="720" y="846.25" width="70" height="40" as="geometry" />
        </mxCell>
        <mxCell id="s3TjIayYwpr6v7bLue1O-51" value="" style="endArrow=none;html=1;rounded=0;entryX=0;entryY=0.5;entryDx=0;entryDy=0;" parent="1" source="s3TjIayYwpr6v7bLue1O-46" target="s3TjIayYwpr6v7bLue1O-50" edge="1">
          <mxGeometry width="50" height="50" relative="1" as="geometry">
            <mxPoint x="490" y="770" as="sourcePoint" />
            <mxPoint x="540" y="720" as="targetPoint" />
          </mxGeometry>
        </mxCell>
        <mxCell id="s3TjIayYwpr6v7bLue1O-52" value="简介" style="ellipse;whiteSpace=wrap;html=1;" parent="1" vertex="1">
          <mxGeometry x="599" y="940" width="70" height="40" as="geometry" />
        </mxCell>
        <mxCell id="s3TjIayYwpr6v7bLue1O-53" value="" style="endArrow=none;html=1;rounded=0;entryX=0.5;entryY=1;entryDx=0;entryDy=0;exitX=0.5;exitY=0;exitDx=0;exitDy=0;" parent="1" source="s3TjIayYwpr6v7bLue1O-52" target="s3TjIayYwpr6v7bLue1O-46" edge="1">
          <mxGeometry width="50" height="50" relative="1" as="geometry">
            <mxPoint x="490" y="770" as="sourcePoint" />
            <mxPoint x="540" y="720" as="targetPoint" />
          </mxGeometry>
        </mxCell>
        <mxCell id="s3TjIayYwpr6v7bLue1O-54" value="攻略" style="whiteSpace=wrap;html=1;" parent="1" vertex="1">
          <mxGeometry x="217" y="839.37" width="90" height="52.5" as="geometry" />
        </mxCell>
        <mxCell id="s3TjIayYwpr6v7bLue1O-55" value="包含" style="rhombus;whiteSpace=wrap;html=1;" parent="1" vertex="1">
          <mxGeometry x="400" y="833.75" width="110" height="63.75" as="geometry" />
        </mxCell>
        <mxCell id="s3TjIayYwpr6v7bLue1O-56" value="" style="endArrow=none;html=1;rounded=0;exitX=1;exitY=0.5;exitDx=0;exitDy=0;entryX=0;entryY=0.5;entryDx=0;entryDy=0;" parent="1" source="s3TjIayYwpr6v7bLue1O-55" target="s3TjIayYwpr6v7bLue1O-46" edge="1">
          <mxGeometry width="50" height="50" relative="1" as="geometry">
            <mxPoint x="490" y="770" as="sourcePoint" />
            <mxPoint x="540" y="720" as="targetPoint" />
          </mxGeometry>
        </mxCell>
        <mxCell id="s3TjIayYwpr6v7bLue1O-57" value="" style="endArrow=none;html=1;rounded=0;exitX=1;exitY=0.5;exitDx=0;exitDy=0;" parent="1" source="s3TjIayYwpr6v7bLue1O-54" target="s3TjIayYwpr6v7bLue1O-55" edge="1">
          <mxGeometry width="50" height="50" relative="1" as="geometry">
            <mxPoint x="490" y="770" as="sourcePoint" />
            <mxPoint x="540" y="720" as="targetPoint" />
          </mxGeometry>
        </mxCell>
        <mxCell id="s3TjIayYwpr6v7bLue1O-58" value="N" style="text;html=1;align=center;verticalAlign=middle;resizable=0;points=[];autosize=1;strokeColor=none;fillColor=none;" parent="1" vertex="1">
          <mxGeometry x="345" y="838" width="30" height="30" as="geometry" />
        </mxCell>
        <mxCell id="s3TjIayYwpr6v7bLue1O-59" value="1" style="text;html=1;align=center;verticalAlign=middle;resizable=0;points=[];autosize=1;strokeColor=none;fillColor=none;" parent="1" vertex="1">
          <mxGeometry x="535" y="838" width="30" height="30" as="geometry" />
        </mxCell>
        <mxCell id="s3TjIayYwpr6v7bLue1O-60" value="创建" style="rhombus;whiteSpace=wrap;html=1;" parent="1" vertex="1">
          <mxGeometry x="209" y="690" width="110" height="50" as="geometry" />
        </mxCell>
        <mxCell id="s3TjIayYwpr6v7bLue1O-61" value="" style="endArrow=none;html=1;rounded=0;exitX=0.5;exitY=1;exitDx=0;exitDy=0;entryX=0.5;entryY=0;entryDx=0;entryDy=0;" parent="1" source="s3TjIayYwpr6v7bLue1O-23" target="s3TjIayYwpr6v7bLue1O-60" edge="1">
          <mxGeometry width="50" height="50" relative="1" as="geometry">
            <mxPoint x="490" y="770" as="sourcePoint" />
            <mxPoint x="540" y="720" as="targetPoint" />
          </mxGeometry>
        </mxCell>
        <mxCell id="s3TjIayYwpr6v7bLue1O-62" value="" style="endArrow=none;html=1;rounded=0;exitX=0.5;exitY=1;exitDx=0;exitDy=0;" parent="1" source="s3TjIayYwpr6v7bLue1O-60" target="s3TjIayYwpr6v7bLue1O-54" edge="1">
          <mxGeometry width="50" height="50" relative="1" as="geometry">
            <mxPoint x="490" y="770" as="sourcePoint" />
            <mxPoint x="540" y="720" as="targetPoint" />
          </mxGeometry>
        </mxCell>
        <mxCell id="s3TjIayYwpr6v7bLue1O-63" value="1" style="text;html=1;align=center;verticalAlign=middle;resizable=0;points=[];autosize=1;strokeColor=none;fillColor=none;" parent="1" vertex="1">
          <mxGeometry x="265" y="618" width="30" height="30" as="geometry" />
        </mxCell>
        <mxCell id="s3TjIayYwpr6v7bLue1O-64" value="N" style="text;html=1;align=center;verticalAlign=middle;resizable=0;points=[];autosize=1;strokeColor=none;fillColor=none;" parent="1" vertex="1">
          <mxGeometry x="265" y="768" width="30" height="30" as="geometry" />
        </mxCell>
        <mxCell id="s3TjIayYwpr6v7bLue1O-65" value="手帐" style="whiteSpace=wrap;html=1;" parent="1" vertex="1">
          <mxGeometry x="400" y="680" width="90" height="52.5" as="geometry" />
        </mxCell>
        <mxCell id="s3TjIayYwpr6v7bLue1O-66" value="创建" style="rhombus;whiteSpace=wrap;html=1;" parent="1" vertex="1">
          <mxGeometry x="300" y="598" width="110" height="50" as="geometry" />
        </mxCell>
        <mxCell id="s3TjIayYwpr6v7bLue1O-67" value="" style="endArrow=none;html=1;rounded=0;exitX=0.75;exitY=1;exitDx=0;exitDy=0;entryX=0.5;entryY=0;entryDx=0;entryDy=0;" parent="1" source="s3TjIayYwpr6v7bLue1O-23" target="s3TjIayYwpr6v7bLue1O-66" edge="1">
          <mxGeometry width="50" height="50" relative="1" as="geometry">
            <mxPoint x="490" y="770" as="sourcePoint" />
            <mxPoint x="540" y="720" as="targetPoint" />
          </mxGeometry>
        </mxCell>
        <mxCell id="s3TjIayYwpr6v7bLue1O-68" value="" style="endArrow=none;html=1;rounded=0;exitX=0.5;exitY=1;exitDx=0;exitDy=0;entryX=0;entryY=0;entryDx=0;entryDy=0;" parent="1" source="s3TjIayYwpr6v7bLue1O-66" target="s3TjIayYwpr6v7bLue1O-65" edge="1">
          <mxGeometry width="50" height="50" relative="1" as="geometry">
            <mxPoint x="310" y="652" as="sourcePoint" />
            <mxPoint x="377" y="680" as="targetPoint" />
          </mxGeometry>
        </mxCell>
        <mxCell id="s3TjIayYwpr6v7bLue1O-69" value="记录" style="rhombus;whiteSpace=wrap;html=1;" parent="1" vertex="1">
          <mxGeometry x="479" y="768" width="110" height="50" as="geometry" />
        </mxCell>
        <mxCell id="s3TjIayYwpr6v7bLue1O-70" value="" style="endArrow=none;html=1;rounded=0;entryX=0;entryY=0;entryDx=0;entryDy=0;exitX=0.5;exitY=1;exitDx=0;exitDy=0;" parent="1" source="s3TjIayYwpr6v7bLue1O-69" target="s3TjIayYwpr6v7bLue1O-46" edge="1">
          <mxGeometry width="50" height="50" relative="1" as="geometry">
            <mxPoint x="490" y="770" as="sourcePoint" />
            <mxPoint x="540" y="720" as="targetPoint" />
          </mxGeometry>
        </mxCell>
        <mxCell id="s3TjIayYwpr6v7bLue1O-71" value="" style="endArrow=none;html=1;rounded=0;exitX=1;exitY=1;exitDx=0;exitDy=0;entryX=0.5;entryY=0;entryDx=0;entryDy=0;" parent="1" source="s3TjIayYwpr6v7bLue1O-65" target="s3TjIayYwpr6v7bLue1O-69" edge="1">
          <mxGeometry width="50" height="50" relative="1" as="geometry">
            <mxPoint x="490" y="770" as="sourcePoint" />
            <mxPoint x="540" y="720" as="targetPoint" />
          </mxGeometry>
        </mxCell>
        <mxCell id="s3TjIayYwpr6v7bLue1O-72" value="时间" style="ellipse;whiteSpace=wrap;html=1;" parent="1" vertex="1">
          <mxGeometry x="440" y="590" width="70" height="40" as="geometry" />
        </mxCell>
        <mxCell id="s3TjIayYwpr6v7bLue1O-73" value="内容" style="ellipse;whiteSpace=wrap;html=1;" parent="1" vertex="1">
          <mxGeometry x="350" y="758" width="70" height="40" as="geometry" />
        </mxCell>
        <mxCell id="s3TjIayYwpr6v7bLue1O-74" value="" style="endArrow=none;html=1;rounded=0;entryX=0.5;entryY=1;entryDx=0;entryDy=0;exitX=0.5;exitY=0;exitDx=0;exitDy=0;" parent="1" source="s3TjIayYwpr6v7bLue1O-65" target="s3TjIayYwpr6v7bLue1O-72" edge="1">
          <mxGeometry width="50" height="50" relative="1" as="geometry">
            <mxPoint x="490" y="770" as="sourcePoint" />
            <mxPoint x="540" y="720" as="targetPoint" />
          </mxGeometry>
        </mxCell>
        <mxCell id="s3TjIayYwpr6v7bLue1O-75" value="" style="endArrow=none;html=1;rounded=0;entryX=0.5;entryY=1;entryDx=0;entryDy=0;exitX=1;exitY=0;exitDx=0;exitDy=0;" parent="1" source="s3TjIayYwpr6v7bLue1O-73" target="s3TjIayYwpr6v7bLue1O-65" edge="1">
          <mxGeometry width="50" height="50" relative="1" as="geometry">
            <mxPoint x="490" y="770" as="sourcePoint" />
            <mxPoint x="540" y="720" as="targetPoint" />
          </mxGeometry>
        </mxCell>
        <mxCell id="GhX-NzcwpCZdTHY9jAyj-1" value="1" style="text;html=1;align=center;verticalAlign=middle;resizable=0;points=[];autosize=1;strokeColor=none;fillColor=none;" vertex="1" parent="1">
          <mxGeometry x="308" y="561" width="25" height="26" as="geometry" />
        </mxCell>
        <mxCell id="GhX-NzcwpCZdTHY9jAyj-2" value="N" style="text;html=1;align=center;verticalAlign=middle;resizable=0;points=[];autosize=1;strokeColor=none;fillColor=none;" vertex="1" parent="1">
          <mxGeometry x="377" y="646" width="27" height="26" as="geometry" />
        </mxCell>
        <mxCell id="GhX-NzcwpCZdTHY9jAyj-3" value="N" style="text;html=1;align=center;verticalAlign=middle;resizable=0;points=[];autosize=1;strokeColor=none;fillColor=none;" vertex="1" parent="1">
          <mxGeometry x="517" y="727" width="27" height="26" as="geometry" />
        </mxCell>
        <mxCell id="GhX-NzcwpCZdTHY9jAyj-4" value="N" style="text;html=1;align=center;verticalAlign=middle;resizable=0;points=[];autosize=1;strokeColor=none;fillColor=none;" vertex="1" parent="1">
          <mxGeometry x="566" y="806" width="27" height="26" as="geometry" />
        </mxCell>
      </root>
    </mxGraphModel>
  </diagram>
</mxfile>
